<svg xmlns="http://www.w3.org/2000/svg" width="44.041" height="44.575" viewBox="0 0 44.041 44.575">
  <g id="API_symbol" transform="translate(0.5 0.5)">
    <path id="Path_1154" data-name="Path 1154" d="M-83.65-47.319v-5.12l-4.066-.792a18.13,18.13,0,0,0-.678-2.562l3.13-2.746-2.528-4.467-3.925,1.377A17.692,17.692,0,0,0-93.563-63.5l1.36-3.971-4.412-2.56-2.713,3.168a17.706,17.706,0,0,0-2.53-.683l-.783-4.119H-107.7l-.783,4.117a17.5,17.5,0,0,0-2.531.686l-2.713-3.169-4.412,2.56,1.361,3.973a17.764,17.764,0,0,0-1.85,1.87l-3.922-1.376-2.529,4.466,3.13,2.746a18.316,18.316,0,0,0-.675,2.562l-4.069.792v5.12l4.066.791a18.1,18.1,0,0,0,.678,2.563l-3.13,2.746,2.529,4.466,3.924-1.377a17.693,17.693,0,0,0,1.847,1.873l-1.36,3.97,4.412,2.56,2.713-3.169a17.679,17.679,0,0,0,2.53.684l.783,4.12h5.057l.782-4.117a17.492,17.492,0,0,0,2.531-.686l2.713,3.169,4.412-2.56-1.361-3.973a17.7,17.7,0,0,0,1.85-1.87l3.923,1.376,2.528-4.466-3.13-2.747a18.288,18.288,0,0,0,.675-2.562Zm-15.064,8.77a12.836,12.836,0,0,1-17.648-4.793,13.171,13.171,0,0,1,4.735-17.866,12.836,12.836,0,0,1,17.647,4.793A13.171,13.171,0,0,1-98.714-38.549Z" transform="translate(126.691 71.666)" fill="none" stroke="#fff" stroke-width="1"/>
  </g>
</svg>
