<svg xmlns="http://www.w3.org/2000/svg" width="58.29" height="59" viewBox="0 0 58.29 59">
  <g id="API_symbol" transform="translate(0.5 0.5)">
    <path id="Path_1154" data-name="Path 1154" d="M-69.4-39.259v-6.815l-5.412-1.054a24.131,24.131,0,0,0-.9-3.41l4.166-3.656-3.365-5.946-5.224,1.833A23.548,23.548,0,0,0-82.6-60.8l1.81-5.285-5.873-3.407-3.611,4.217a23.567,23.567,0,0,0-3.368-.909l-1.042-5.483h-6.731l-1.042,5.48a23.3,23.3,0,0,0-3.368.913l-3.611-4.218-5.872,3.407,1.811,5.288a23.644,23.644,0,0,0-2.463,2.489l-5.22-1.832-3.366,5.945,4.166,3.656a24.377,24.377,0,0,0-.9,3.41l-5.416,1.054v6.815l5.412,1.053a24.087,24.087,0,0,0,.9,3.412l-4.166,3.655,3.366,5.945,5.222-1.833a23.551,23.551,0,0,0,2.459,2.493l-1.81,5.285,5.872,3.408,3.611-4.218a23.531,23.531,0,0,0,3.368.91l1.042,5.483h6.731l1.041-5.48a23.284,23.284,0,0,0,3.368-.913l3.611,4.218,5.873-3.407L-82.6-24.536a23.554,23.554,0,0,0,2.462-2.489l5.221,1.832,3.365-5.944-4.166-3.656a24.341,24.341,0,0,0,.9-3.41ZM-89.452-27.586a17.085,17.085,0,0,1-23.489-6.38,17.531,17.531,0,0,1,6.3-23.78,17.085,17.085,0,0,1,23.489,6.38A17.531,17.531,0,0,1-89.452-27.586Z" transform="translate(126.691 71.666)" fill="none" stroke="#0c0c0c" stroke-width="1"/>
  </g>
</svg>
