<svg id="new_picto_api_The_API_has_a_fair_use_policy" xmlns="http://www.w3.org/2000/svg" width="47.09" height="47.09" viewBox="0 0 47.09 47.09">
  <circle id="Ellipse_247" data-name="Ellipse 247" cx="21.413" cy="21.413" r="21.413" transform="translate(2.132 2.132)" fill="#fff"/>
  <path id="Path_2473" data-name="Path 2473" d="M45.868,14.988A22.5,22.5,0,0,0,40.821,7.4,22.985,22.985,0,0,0,24,.5,22.174,22.174,0,0,0,7.483,7.35a23.608,23.608,0,0,0-5.195,7.718A23.256,23.256,0,0,0,7.416,40.63,23.659,23.659,0,0,0,15.068,45.8,22.914,22.914,0,0,0,24,47.59a23.478,23.478,0,0,0,9.043-1.81,24.173,24.173,0,0,0,7.821-5.217A21.594,21.594,0,0,0,45.89,33.1a24.04,24.04,0,0,0,1.7-9.057,23.851,23.851,0,0,0-1.722-9.057ZM37.841,37.547a20.286,20.286,0,0,1-6.409,4.245,19.1,19.1,0,0,1-14.649.022,19.509,19.509,0,0,1-6.269-4.209,19.329,19.329,0,0,1-4.268-6.269,18.653,18.653,0,0,1,0-14.627,20.139,20.139,0,0,1,4.268-6.328A18.255,18.255,0,0,1,24.1,4.745,18.53,18.53,0,0,1,37.76,10.418a18.865,18.865,0,0,1,4.157,6.225,19.388,19.388,0,0,1,1.427,7.4,18.077,18.077,0,0,1-5.5,13.494Z" transform="translate(-0.5 -0.5)"/>
  <path id="Path_2474" data-name="Path 2474" d="M17.468,34.7a11.182,11.182,0,0,0,22.176-1.948q.022-5.535.007-11.084v-4.2H34.918V32.457a8.528,8.528,0,0,1-.051,1.007,6.456,6.456,0,0,1-12.7.617A8.44,8.44,0,0,1,22,31.957v-1.1h8.872V26.121H22.018v-4.05h8.857V17.485H17.27V20.7q0,5.932.007,11.863a11.694,11.694,0,0,0,.191,2.139Z" transform="translate(-4.919 -4.967)"/>
</svg>
