<svg id="icon_2_about" xmlns="http://www.w3.org/2000/svg" xmlns:xlink="http://www.w3.org/1999/xlink" width="278.358" height="164.667" viewBox="0 0 278.358 164.667">
  <defs>
    <clipPath id="clip-path">
      <path id="Path_2502" data-name="Path 2502" d="M0,104.929H278.358V-59.738H0Z" transform="translate(0 59.738)" fill="none"/>
    </clipPath>
  </defs>
  <g id="Group_2921" data-name="Group 2921" clip-path="url(#clip-path)">
    <g id="Group_2918" data-name="Group 2918" transform="translate(8.093 6.224)">
      <path id="Path_2499" data-name="Path 2499" d="M92.7,49.369H-48.9a4.032,4.032,0,0,1-3.873-4.154V-23.953A4.032,4.032,0,0,1-48.9-28.107H92.7a4.032,4.032,0,0,1,3.873,4.154V45.215A4.032,4.032,0,0,1,92.7,49.369" transform="translate(52.777 28.107)" fill="#fff"/>
    </g>
    <g id="Group_2919" data-name="Group 2919" transform="translate(8.093 6.224)">
      <path id="Path_2500" data-name="Path 2500" d="M92.7,49.369H-48.9a4.032,4.032,0,0,1-3.873-4.154V-23.953A4.032,4.032,0,0,1-48.9-28.107H92.7a4.032,4.032,0,0,1,3.873,4.154V45.215A4.032,4.032,0,0,1,92.7,49.369Z" transform="translate(52.777 28.107)" fill="none" stroke="#7141ff" stroke-width="0.851"/>
    </g>
    <g id="Group_2920" data-name="Group 2920" transform="translate(15.793 39.201)">
      <path id="Path_2501" data-name="Path 2501" d="M1.391,0A2.183,2.183,0,0,0-.792,2.183V17.33a2.183,2.183,0,0,0,2.183,2.186H40.42A2.185,2.185,0,0,0,42.6,17.33V2.183A2.185,2.185,0,0,0,40.42,0Z" transform="translate(0.792)" fill="#7141ff"/>
    </g>
  </g>
  <text id="API" transform="translate(28.404 34.889)" fill="#7141ff" font-size="15" font-family="Roboto" font-weight="700"><tspan x="0" y="0">API</tspan></text>
  <g id="Group" transform="translate(23.507 38.739)">
    <text id="ToS" transform="translate(0 16)" fill="#fff" font-size="15" font-family="Roboto" font-weight="700"><tspan x="0" y="0">ToS</tspan></text>
  </g>
  <g id="Group_2923" data-name="Group 2923" clip-path="url(#clip-path)">
    <g id="Group_2922" data-name="Group 2922" transform="translate(14.6 22.819)">
      <path id="Path_2503" data-name="Path 2503" d="M3.571,0H5.892c.063.342.13.686.19,1.028.017.094.08.119.154.138a5.679,5.679,0,0,1,1.395.582.179.179,0,0,0,.229-.011c.237-.165.477-.325.714-.485.113-.074.121-.074.215.022q.719.711,1.433,1.431c.1.1.1.1.017.226-.16.234-.314.471-.48.7a.191.191,0,0,0-.008.243,5.36,5.36,0,0,1,.573,1.381.194.194,0,0,0,.176.168c.278.047.557.1.835.157.141.028.152.041.154.187V7.748c0,.16-.014.171-.171.2-.27.052-.538.108-.808.154a.205.205,0,0,0-.19.171,5.32,5.32,0,0,1-.573,1.381.191.191,0,0,0,.014.243c.165.234.325.474.485.714.072.1.069.116-.019.2L8.789,12.258c-.1.094-.1.094-.218.017-.237-.16-.477-.32-.711-.485a.183.183,0,0,0-.232-.011,5.136,5.136,0,0,1-1.381.573.219.219,0,0,0-.182.2c-.044.27-.1.54-.149.808-.03.154-.039.165-.193.165H3.745c-.157,0-.168-.011-.2-.16-.052-.273-.108-.546-.154-.821a.208.208,0,0,0-.174-.187,5.36,5.36,0,0,1-1.381-.573.179.179,0,0,0-.229.006c-.232.163-.469.32-.7.477-.132.091-.135.091-.248-.022-.469-.469-.934-.934-1.4-1.4-.116-.116-.116-.116-.019-.259.157-.234.314-.469.477-.7a.166.166,0,0,0,.008-.207c-.061-.1-.113-.2-.165-.3A5.667,5.667,0,0,1-.864,8.267C-.884,8.2-.9,8.132-.988,8.115l-1.045-.19V5.6c.347-.066.695-.132,1.042-.193.08-.017.1-.069.124-.138a5.409,5.409,0,0,1,.59-1.417A.17.17,0,0,0-.285,3.65c-.165-.234-.325-.474-.485-.714C-.859,2.8-.859,2.8-.743,2.688q.7-.7,1.4-1.4C.77,1.174.773,1.174.9,1.262c.24.16.48.32.714.485a.166.166,0,0,0,.207.008,3.141,3.141,0,0,1,.3-.165,5.6,5.6,0,0,1,1.108-.422c.069-.019.132-.039.149-.127C3.441.695,3.508.347,3.571,0M1.112,6.753A3.619,3.619,0,1,0,4.751,3.142,3.618,3.618,0,0,0,1.112,6.753" transform="translate(2.033)" fill="#7141ff"/>
    </g>
  </g>
  <g id="Group_2924" data-name="Group 2924" transform="translate(113.7 20.903)">
    <path id="Path_2505" data-name="Path 2505" d="M0,3.546,3.641,7.188M31.454,3.971,28.237,7.188m-11.6-9.207V3.546" transform="translate(0 2.019)" fill="none" stroke="#7141ff" stroke-linecap="round" stroke-width="1.091"/>
  </g>
  <g id="Group_2927" data-name="Group 2927" clip-path="url(#clip-path)">
    <g id="Group_2925" data-name="Group 2925" transform="translate(118.927 32.619)">
      <path id="Path_2506" data-name="Path 2506" d="M3.676,15.955c.176-2.657-.945-4.209-2.564-5.816A11.011,11.011,0,0,1-.492-3.374a11.672,11.672,0,0,1,12.25-5.488A11.785,11.785,0,0,1,20.877,1.406a10.632,10.632,0,0,1-3.192,8.79c-1.6,1.571-3.046,3-2.263,5.758Z" transform="translate(2.093 9.083)" fill="#7141ff"/>
    </g>
    <g id="Group_2926" data-name="Group 2926" transform="translate(124.612 61.558)">
      <path id="Path_2507" data-name="Path 2507" d="M0,.328A31.454,31.454,0,0,1,11.417.342c-.744,3.539-1.676,4.427-4.584,4.62C2.591,5.246,1.375,4.5,0,.328" transform="translate(0 0.187)" fill="#7141ff"/>
    </g>
  </g>
  <path id="Path_2509" data-name="Path 2509" d="M32.326-37.83H24.591v-3.291h7.735Z" transform="translate(43.194 92.438)" fill="#7141ff"/>
  <path id="Path_2510" data-name="Path 2510" d="M38.207-37.83H30.472v-3.291h7.735Z" transform="translate(53.524 92.438)" fill="#7141ff"/>
  <path id="Path_2511" data-name="Path 2511" d="M44.088-37.83H36.353v-3.291h7.735Z" transform="translate(63.854 92.438)" fill="#7141ff"/>
  <g id="Group_2951" data-name="Group 2951" clip-path="url(#clip-path)">
    <g id="Group_2928" data-name="Group 2928" transform="translate(177.236 1.175)">
      <path id="Path_2512" data-name="Path 2512" d="M25.792,51.583A40.475,40.475,0,1,0-14.684,11.106,40.475,40.475,0,0,0,25.792,51.583" transform="translate(14.684 29.367)" fill="#fff"/>
    </g>
    <g id="Group_2929" data-name="Group 2929" transform="translate(177.236 1.175)">
      <path id="Path_2513" data-name="Path 2513" d="M25.792,51.583A40.475,40.475,0,1,0-14.684,11.106,40.475,40.475,0,0,0,25.792,51.583Z" transform="translate(14.684 29.367)" fill="none" stroke="#7141ff" stroke-width="0.851"/>
    </g>
    <g id="Group_2930" data-name="Group 2930" transform="translate(203.831 24.877)">
      <path id="Path_2514" data-name="Path 2514" d="M12.64,3.281,10.749,8.286c.2.074.375.146.551.2l16.792,5.306q4.271,1.348,8.54,2.7a3.229,3.229,0,0,1-.13,6.246,3.533,3.533,0,0,1-2.288-.2c-1.114-.46-2.233-.91-3.352-1.362q-6.181-2.5-12.36-5L9.544,12.548c-.108-.041-.218-.077-.361-.13-.634,1.662-1.26,3.308-1.91,5.009L-7.2,12.223C-5.4,7.5-3.635,2.828-1.857-1.86a.684.684,0,0,1,.185,0c4.747,1.7,9.493,3.41,14.312,5.141" transform="translate(7.196 1.868)" fill="#7141ff"/>
    </g>
    <g id="Group_2931" data-name="Group 2931" transform="translate(193.39 54.084)">
      <path id="Path_2515" data-name="Path 2515" d="M1.456,2.841c0-.772-.011-1.494,0-2.213A2.239,2.239,0,0,1,3.088-1.5a3.417,3.417,0,0,1,.871-.113q9.634-.008,19.268,0A2.3,2.3,0,0,1,25.642.118a2.515,2.515,0,0,1,.066.477c.033.617.058,1.235.094,1.852.019.389.052.408.449.43.557.03,1.114.069,1.72.1.1,1.362-.039,2.7-.074,4.091-.229.014-.43.041-.631.041q-5.321,0-10.648,0-8.331,0-16.66,0c-.841,0-.695-.063-.711-.695C-.779,5.438-.8,4.454-.826,3.467c0-.1-.006-.207,0-.309.014-.295.083-.356.378-.345.485.017.97.036,1.455.05.13,0,.259-.011.449-.022" transform="translate(0.829 1.618)" fill="#7141ff"/>
    </g>
    <g id="Group_2932" data-name="Group 2932" transform="translate(200.117 40.764)">
      <path id="Path_2516" data-name="Path 2516" d="M1.44,0a7.493,7.493,0,0,1,.83.2Q9.336,2.726,16.4,5.279a3.019,3.019,0,0,1,.918.507,2,2,0,0,1,.653,2.158,2.127,2.127,0,0,1-1.731,1.582,2.4,2.4,0,0,1-1.34-.143Q12.181,8.4,9.456,7.423,5.135,5.869.815,4.317A2.318,2.318,0,0,1-.674,2.971,2.158,2.158,0,0,1,.715.146,7.306,7.306,0,0,1,1.44,0" transform="translate(0.82)" fill="#7141ff"/>
    </g>
    <g id="Group_2933" data-name="Group 2933" transform="translate(208.502 18.659)">
      <path id="Path_2517" data-name="Path 2517" d="M12.037,4.675A2.229,2.229,0,0,1,9.173,6.787c-.984-.3-1.943-.681-2.914-1.028L-2.173,2.724c-1.064-.386-2.131-.775-3.2-1.152A2.205,2.205,0,0,1-6.837-.7,2.224,2.224,0,0,1-4.67-2.66a2.459,2.459,0,0,1,.9.171Q.414-1,4.586.507q2.927,1.05,5.858,2.1a2.272,2.272,0,0,1,1.439,1.34,4.55,4.55,0,0,1,.154.728" transform="translate(6.853 2.662)" fill="#7141ff"/>
    </g>
    <g id="Group_2934" data-name="Group 2934" transform="translate(1.173 108.971)">
      <path id="Path_2518" data-name="Path 2518" d="M14.595,15.277H-5c-2.428,0-3.338-.846-3.311-3.261C-8.218,2.933-4.116-3.806,3.621-8.39a1.742,1.742,0,0,1,1.954,0,18.573,18.573,0,0,0,18.047-.022,1.7,1.7,0,0,1,1.855-.019,22.746,22.746,0,0,1,11.8,17.355,25.211,25.211,0,0,1,.2,3.415,2.8,2.8,0,0,1-3.029,2.96c-6.613-.063-13.234-.03-19.847-.03Z" transform="translate(8.309 8.697)" fill="#7141ff"/>
    </g>
    <g id="Group_2935" data-name="Group 2935" transform="translate(1.173 108.971)">
      <path id="Path_2519" data-name="Path 2519" d="M14.595,15.277H-5c-2.428,0-3.338-.846-3.311-3.261C-8.218,2.933-4.116-3.806,3.621-8.39a1.742,1.742,0,0,1,1.954,0,18.573,18.573,0,0,0,18.047-.022,1.7,1.7,0,0,1,1.855-.019,22.746,22.746,0,0,1,11.8,17.355,25.211,25.211,0,0,1,.2,3.415,2.8,2.8,0,0,1-3.029,2.96c-6.613-.063-13.234-.03-19.847-.03Z" transform="translate(8.309 8.697)" fill="none" stroke="#fff" stroke-linecap="round" stroke-width="0.85"/>
    </g>
    <g id="Group_2936" data-name="Group 2936" transform="translate(9.757 76.761)">
      <path id="Path_2520" data-name="Path 2520" d="M9.128,18.171A14.237,14.237,0,0,1-5.2,3.845,14.355,14.355,0,0,1,9.06-10.345,14.268,14.268,0,0,1,23.382,3.9,14.2,14.2,0,0,1,9.128,18.171" transform="translate(5.197 10.345)" fill="#7141ff" stroke="#fff" stroke-linecap="round" stroke-width="0.85"/>
    </g>
    <g id="Group_2937" data-name="Group 2937" transform="translate(116.376 108.971)">
      <path id="Path_2521" data-name="Path 2521" d="M14.595,15.277H-5c-2.428,0-3.338-.846-3.311-3.261C-8.218,2.933-4.119-3.806,3.621-8.39a1.742,1.742,0,0,1,1.954,0,18.573,18.573,0,0,0,18.047-.022,1.7,1.7,0,0,1,1.855-.019,22.753,22.753,0,0,1,11.8,17.355,25.667,25.667,0,0,1,.2,3.415,2.8,2.8,0,0,1-3.029,2.96c-6.613-.063-13.234-.03-19.847-.03Z" transform="translate(8.309 8.697)" fill="#7141ff"/>
    </g>
    <g id="Group_2938" data-name="Group 2938" transform="translate(116.376 108.971)">
      <path id="Path_2522" data-name="Path 2522" d="M14.595,15.277H-5c-2.428,0-3.338-.846-3.311-3.261C-8.218,2.933-4.119-3.806,3.621-8.39a1.742,1.742,0,0,1,1.954,0,18.573,18.573,0,0,0,18.047-.022,1.7,1.7,0,0,1,1.855-.019,22.753,22.753,0,0,1,11.8,17.355,25.667,25.667,0,0,1,.2,3.415,2.8,2.8,0,0,1-3.029,2.96c-6.613-.063-13.234-.03-19.847-.03Z" transform="translate(8.309 8.697)" fill="none" stroke="#fff" stroke-linecap="round" stroke-width="0.85"/>
    </g>
    <g id="Group_2939" data-name="Group 2939" transform="translate(124.959 76.761)">
      <path id="Path_2523" data-name="Path 2523" d="M9.128,18.171A14.237,14.237,0,0,1-5.2,3.845,14.355,14.355,0,0,1,9.06-10.345,14.268,14.268,0,0,1,23.382,3.9,14.2,14.2,0,0,1,9.128,18.171" transform="translate(5.197 10.345)" fill="#7141ff" stroke="#fff" stroke-linecap="round" stroke-width="0.85"/>
    </g>
    <g id="Group_2940" data-name="Group 2940" transform="translate(45.861 70.411)">
      <path id="Path_2524" data-name="Path 2524" d="M4.057,22.638c.361-1.635.736-3.264,1.081-4.9.356-1.676.681-3.357,1.1-5.414-1.662-.149-3.043-.259-4.419-.4C-.77,11.648-2.256,10.286-2.264,7.6c-.022-5.386-.108-10.778.036-16.161.074-2.839,1.271-4.165,4.085-4.226C9.3-12.943,16.75-12.9,24.2-12.8c2.63.033,4.1,1.662,4.135,4.264.08,5.386.152,10.781-.025,16.161-.1,2.988-1.472,4.446-4.576,4.228-4.066-.284-6.891,1.541-9.719,3.967-2.963,2.541-6.095,4.882-9.154,7.31-.265-.163-.532-.325-.8-.488" transform="translate(2.309 12.888)" fill="#7141ff"/>
    </g>
    <g id="Group_2941" data-name="Group 2941" transform="translate(45.861 70.411)">
      <path id="Path_2525" data-name="Path 2525" d="M4.057,22.638c.361-1.635.736-3.264,1.081-4.9.356-1.676.681-3.357,1.1-5.414-1.662-.149-3.043-.259-4.419-.4C-.77,11.648-2.256,10.286-2.264,7.6c-.022-5.386-.108-10.778.036-16.161.074-2.839,1.271-4.165,4.085-4.226C9.3-12.943,16.75-12.9,24.2-12.8c2.63.033,4.1,1.662,4.135,4.264.08,5.386.152,10.781-.025,16.161-.1,2.988-1.472,4.446-4.576,4.228-4.066-.284-6.891,1.541-9.719,3.967-2.963,2.541-6.095,4.882-9.154,7.31C4.591,22.963,4.324,22.8,4.057,22.638Z" transform="translate(2.309 12.888)" fill="none" stroke="#fff" stroke-linecap="round" stroke-width="0.85"/>
    </g>
    <g id="Group_2942" data-name="Group 2942" transform="translate(87.632 70.38)">
      <path id="Path_2526" data-name="Path 2526" d="M13.93,15.969c.824,3.793,1.546,7.117,2.269,10.439-.276.185-.554.369-.832.554-3.288-2.621-6.64-5.166-9.846-7.886C3.034,16.962.506,15.583-2.978,15.7c-3.76.121-4.813-1.136-4.882-4.8Q-8,3.313-7.857-4.28c.069-3.457,1.105-4.639,4.529-4.708Q7.344-9.2,18.018-8.974c3.129.069,4.377,1.257,4.51,4.369.223,5.21.229,10.439.041,15.649-.124,3.385-1.309,4.344-4.722,4.719-1.083.119-2.18.119-3.917.207" transform="translate(7.931 9.092)" fill="#7141ff"/>
    </g>
    <g id="Group_2943" data-name="Group 2943" transform="translate(87.632 70.38)">
      <path id="Path_2527" data-name="Path 2527" d="M13.93,15.969c.824,3.793,1.546,7.117,2.269,10.439-.276.185-.554.369-.832.554-3.288-2.621-6.64-5.166-9.846-7.886C3.034,16.962.506,15.583-2.978,15.7c-3.76.121-4.813-1.136-4.882-4.8Q-8,3.313-7.857-4.28c.069-3.457,1.105-4.639,4.529-4.708Q7.344-9.2,18.018-8.974c3.129.069,4.377,1.257,4.51,4.369.223,5.21.229,10.439.041,15.649-.124,3.385-1.309,4.344-4.722,4.719C16.764,15.881,15.667,15.881,13.93,15.969Z" transform="translate(7.931 9.092)" fill="none" stroke="#fff" stroke-linecap="round" stroke-width="0.85"/>
    </g>
    <g id="Group_2944" data-name="Group 2944" transform="translate(187.265 97.203)">
      <path id="Path_2528" data-name="Path 2528" d="M55.231,42.242H-28.2A3.245,3.245,0,0,1-31.444,39V-20.8A3.245,3.245,0,0,1-28.2-24.049h83.43A3.245,3.245,0,0,1,58.475-20.8V39a3.245,3.245,0,0,1-3.244,3.244" transform="translate(31.444 24.049)" fill="#fff"/>
    </g>
    <g id="Group_2945" data-name="Group 2945" transform="translate(187.265 97.203)">
      <path id="Path_2529" data-name="Path 2529" d="M55.231,42.242H-28.2A3.245,3.245,0,0,1-31.444,39V-20.8A3.245,3.245,0,0,1-28.2-24.049h83.43A3.245,3.245,0,0,1,58.475-20.8V39A3.245,3.245,0,0,1,55.231,42.242Z" transform="translate(31.444 24.049)" fill="none" stroke="#fff" stroke-width="0.851"/>
    </g>
    <g id="Group_2946" data-name="Group 2946" transform="translate(187.263 97.202)">
      <path id="Path_2530" data-name="Path 2530" d="M57.3,8.19H-32.622V-3.232a1.429,1.429,0,0,1,1.431-1.431H55.872A1.429,1.429,0,0,1,57.3-3.232Z" transform="translate(32.622 4.663)" fill="#7141ff"/>
    </g>
    <g id="Group_2947" data-name="Group 2947" transform="translate(187.263 97.202)">
      <path id="Path_2531" data-name="Path 2531" d="M57.3,8.19H-32.622V-3.232a1.429,1.429,0,0,1,1.431-1.431H55.872A1.429,1.429,0,0,1,57.3-3.232Z" transform="translate(32.622 4.663)" fill="none" stroke="#fff" stroke-linecap="round" stroke-width="0.283"/>
    </g>
    <g id="Group_2948" data-name="Group 2948" transform="translate(194.067 101.654)">
      <path id="Path_2532" data-name="Path 2532" d="M3.232,1.616A2.536,2.536,0,1,1,.7-.92,2.536,2.536,0,0,1,3.232,1.616" transform="translate(1.84 0.92)" fill="#fff"/>
    </g>
    <g id="Group_2949" data-name="Group 2949" transform="translate(203.015 101.654)">
      <path id="Path_2533" data-name="Path 2533" d="M3.232,1.616A2.536,2.536,0,1,1,.7-.92,2.536,2.536,0,0,1,3.232,1.616" transform="translate(1.84 0.92)" fill="#fff"/>
    </g>
    <g id="Group_2950" data-name="Group 2950" transform="translate(212.431 101.654)">
      <path id="Path_2534" data-name="Path 2534" d="M3.232,1.616A2.536,2.536,0,1,1,.7-.92,2.536,2.536,0,0,1,3.232,1.616" transform="translate(1.84 0.92)" fill="#fff"/>
    </g>
  </g>
  <g id="Group_2952" data-name="Group 2952" transform="translate(235.133 149.689)">
    <path id="Path_2536" data-name="Path 2536" d="M0,0H34.227" fill="none" stroke="#7141ff" stroke-linecap="round" stroke-width="0.717"/>
  </g>
  <g id="Group_2953" data-name="Group 2953" transform="translate(235.133 141.385)">
    <path id="Path_2537" data-name="Path 2537" d="M0,0H34.227" fill="none" stroke="#7141ff" stroke-linecap="round" stroke-width="0.717"/>
  </g>
  <g id="Group_2954" data-name="Group 2954" transform="translate(235.133 132.594)">
    <path id="Path_2538" data-name="Path 2538" d="M0,0H34.227" fill="none" stroke="#7141ff" stroke-linecap="round" stroke-width="0.717"/>
  </g>
  <g id="Group_2973" data-name="Group 2973" clip-path="url(#clip-path)">
    <g id="Group_2960" data-name="Group 2960" transform="translate(226.619 147.844)">
      <path id="Path_2540" data-name="Path 2540" d="M1.029,2.057A1.614,1.614,0,1,0-.586.444,1.615,1.615,0,0,0,1.029,2.057" transform="translate(0.586 1.171)" fill="#7141ff"/>
    </g>
    <g id="Group_2966" data-name="Group 2966" transform="translate(226.619 139.67)">
      <path id="Path_2542" data-name="Path 2542" d="M1.029,2.057A1.614,1.614,0,1,0-.586.444,1.615,1.615,0,0,0,1.029,2.057" transform="translate(0.586 1.171)" fill="#7141ff"/>
    </g>
    <g id="Group_2972" data-name="Group 2972" transform="translate(226.619 131.021)">
      <path id="Path_2544" data-name="Path 2544" d="M1.029,2.057A1.614,1.614,0,1,0-.586.442,1.616,1.616,0,0,0,1.029,2.057" transform="translate(0.586 1.171)" fill="#7141ff"/>
    </g>
  </g>
  <g id="Group_2974" data-name="Group 2974" transform="translate(227.88 120.569)">
    <path id="Path_2546" data-name="Path 2546" d="M0,0H40.584" fill="none" stroke="#7141ff" stroke-linecap="round" stroke-width="1.091"/>
  </g>
  <g id="Group_2977" data-name="Group 2977" clip-path="url(#clip-path)">
    <g id="Group_2975" data-name="Group 2975" transform="translate(194.535 124.072)">
      <path id="Path_2547" data-name="Path 2547" d="M5.449,0H8.991c.1.524.2,1.045.289,1.568.025.143.121.182.237.212a8.505,8.505,0,0,1,2.125.888A.283.283,0,0,0,12,2.649q.538-.376,1.089-.739c.171-.116.182-.116.328.03L15.6,4.124c.152.152.152.16.025.347-.24.358-.48.717-.728,1.07a.3.3,0,0,0-.017.369,8.107,8.107,0,0,1,.877,2.106.3.3,0,0,0,.27.256c.424.074.849.157,1.273.243.215.041.234.061.234.284V11.82c0,.245-.019.265-.262.311-.408.08-.819.163-1.229.232a.314.314,0,0,0-.289.265,8.244,8.244,0,0,1-.877,2.106.3.3,0,0,0,.019.369c.254.358.5.722.741,1.089.108.163.108.176-.028.311q-1.1,1.1-2.2,2.2c-.143.143-.157.143-.331.028-.364-.245-.728-.488-1.089-.741a.282.282,0,0,0-.35-.017,7.922,7.922,0,0,1-2.106.877.334.334,0,0,0-.278.3c-.069.413-.149.821-.229,1.232-.047.237-.061.251-.292.251H5.71c-.237,0-.254-.014-.3-.243-.083-.419-.165-.835-.237-1.251a.319.319,0,0,0-.265-.289,8.107,8.107,0,0,1-2.106-.877.286.286,0,0,0-.353.011c-.353.248-.711.488-1.07.728-.2.138-.207.138-.38-.036q-1.067-1.067-2.136-2.136c-.176-.176-.176-.179-.03-.4.24-.358.48-.717.728-1.07a.249.249,0,0,0,.014-.314A4.871,4.871,0,0,1-.674,14.3a8.411,8.411,0,0,1-.645-1.69c-.03-.108-.058-.207-.19-.232-.532-.1-1.061-.193-1.593-.292V8.551c.532-.1,1.061-.2,1.59-.295.124-.022.16-.1.187-.209a8.452,8.452,0,0,1,.9-2.164.253.253,0,0,0-.011-.314c-.251-.358-.493-.725-.739-1.089-.135-.2-.135-.2.041-.378Q-.067,3.031,1,1.965c.174-.174.176-.176.378-.041.364.245.728.491,1.089.741a.253.253,0,0,0,.314.011c.146-.091.3-.171.452-.251a8.825,8.825,0,0,1,1.69-.645c.108-.028.2-.055.229-.19Q5.3.792,5.449,0M1.7,10.3A5.523,5.523,0,1,0,7.249,4.8,5.523,5.523,0,0,0,1.7,10.3" transform="translate(3.102)" fill="#7141ff"/>
    </g>
    <g id="Group_2976" data-name="Group 2976" transform="translate(187.265 97.203)">
      <path id="Path_2548" data-name="Path 2548" d="M55.231,42.242H-28.2A3.245,3.245,0,0,1-31.444,39V-20.8A3.245,3.245,0,0,1-28.2-24.049h83.43A3.245,3.245,0,0,1,58.475-20.8V39A3.245,3.245,0,0,1,55.231,42.242Z" transform="translate(31.444 24.049)" fill="none" stroke="#fff" stroke-width="0.851"/>
    </g>
  </g>
</svg>
