<svg id="icon_1_about" xmlns="http://www.w3.org/2000/svg" xmlns:xlink="http://www.w3.org/1999/xlink" width="129.557" height="129.552" viewBox="0 0 129.557 129.552">
  <defs>
    <clipPath id="clip-path">
      <path id="Path_2498" data-name="Path 2498" d="M0,70.216H129.557V-59.336H0Z" transform="translate(0 59.336)" fill="none"/>
    </clipPath>
    <clipPath id="clip-path-2">
      <rect id="Rectangle_1243" data-name="Rectangle 1243" width="238.725" height="173.219" fill="none"/>
    </clipPath>
  </defs>
  <g id="Group_2916" data-name="Group 2916" clip-path="url(#clip-path)">
    <g id="Group_2915" data-name="Group 2915" transform="translate(-54.584 -41.484)" style="mix-blend-mode: lighten;isolation: isolate">
      <g id="Group_2914" data-name="Group 2914">
        <g id="Group_2913" data-name="Group 2913" clip-path="url(#clip-path-2)">
          <g id="Group_2905" data-name="Group 2905" transform="translate(54.584 41.484)">
            <path id="Path_2490" data-name="Path 2490" d="M70.219,49.814a38.893,38.893,0,0,1-1.812,4.991,14.57,14.57,0,0,1-14.768,7.482A14.728,14.728,0,0,1,41.178,50.41a14.242,14.242,0,0,1,.216-6.33.976.976,0,0,0-.574-1.352c-3.939-1.934-7.856-3.917-11.784-5.878a3.1,3.1,0,0,0-.531-.122c0,4.358-12.168-2.065-12.168,2.365-7.006,0-1.694,10.733-8.642,10.733V66.656A10.7,10.7,0,0,1,14.7,72.006a9.955,9.955,0,0,1,1.081,6.814A10.5,10.5,0,0,1-4.92,78.6c-.943-5.24,2.1-9.72,8.192-12.006V49.9c-6.9,0-5.343-8.417-12.336-8.417,0-4.456-8.441-.33-8.441-4.766a7.67,7.67,0,0,0-.915.3c-3.738,1.856-7.461,3.738-11.212,5.563a1.256,1.256,0,0,0-.788,1.716,14.672,14.672,0,0,1-15.388,18.07,14.783,14.783,0,0,1-13.5-13.46c-.437-7.57,4.541-14.27,11.677-15.559a14.378,14.378,0,0,1,14.517,5.336c.135.166.279.323.463.535.33-.135.651-.247.952-.4,4.356-2.17,8.7-4.371,13.078-6.5a1.674,1.674,0,0,0,1.083-1.788c-.039-5.308-.024-10.618-.011-15.925,0-.642-.059-1.111-.758-1.456-7.323-3.624-14.629-7.29-21.938-10.939a2.738,2.738,0,0,0-.417-.118,10.94,10.94,0,0,1-5.991,3.668,10.5,10.5,0,0,1-12.41-7.88,10.5,10.5,0,0,1,7.773-12.594A10.436,10.436,0,0,1-38.552-2.746,1.036,1.036,0,0,0-37.9-1.419q9.864,4.9,19.714,9.843a4.153,4.153,0,0,0,.6.179c0-4.36,7.655-.873,7.655-5.327C-2.941,3.275-3.71-4.5,3.251-4.5v-8.367c-.987-.3-1.993-.552-2.956-.915A14.656,14.656,0,0,1-9.173-28.772a14.767,14.767,0,0,1,11.808-13.1c.251-.05.493-.144.74-.218H7.554c.247.074.489.168.74.218A14.773,14.773,0,0,1,20.1-28.774a14.647,14.647,0,0,1-9.463,14.991c-.963.365-1.967.616-2.963.919V-4.5C14.633-4.5,14.135.887,21.115.887c0,4.458,7.382,3.356,7.382,7.747a7.009,7.009,0,0,0,.712-.253c6.53-3.262,13.057-6.539,19.6-9.779.7-.347.766-.753.644-1.445a10.435,10.435,0,0,1,7.7-11.834A10.521,10.521,0,0,1,69.739-7.805c.164.493.321.989.48,1.483v3.655c-.092.286-.192.57-.275.86A10.475,10.475,0,0,1,52.1,2.618c-.179-.186-.371-.354-.535-.511a1.765,1.765,0,0,0-.3.076q-11.017,5.505-22.041,11a1.233,1.233,0,0,0-.736,1.332c.015,5.4.026,10.788-.011,16.181a1.508,1.508,0,0,0,1,1.574c4.408,2.164,8.79,4.375,13.185,6.568.3.148.618.255.948.389.207-.255.369-.456.537-.653,3.886-4.6,8.851-6.454,14.688-5.137,5.782,1.3,9.454,5.074,11.024,10.827.127.459.247.917.371,1.376ZM24.152-.194H-13.2V45.491H24.152ZM5.414-17.082A10.474,10.474,0,0,0,15.853-27.425,10.465,10.465,0,0,0,5.513-37.864,10.466,10.466,0,0,0-4.926-27.523,10.48,10.48,0,0,0,5.414-17.082M-44.574,37.329a10.451,10.451,0,0,0-10.48,10.295A10.443,10.443,0,0,0-44.766,58.106a10.448,10.448,0,0,0,10.48-10.292A10.451,10.451,0,0,0-44.574,37.329m110.555,10.4A10.384,10.384,0,1,0,55.59,58.106,10.453,10.453,0,0,0,65.981,47.729M-48.853,1.714a6.272,6.272,0,0,0,6.22-6.236A6.265,6.265,0,0,0-48.9-10.7a6.286,6.286,0,0,0-6.157,6.168,6.273,6.273,0,0,0,6.207,6.247M65.988-4.524A6.279,6.279,0,0,0,59.71-10.7,6.27,6.27,0,0,0,53.56-4.53a6.277,6.277,0,0,0,6.212,6.244,6.27,6.27,0,0,0,6.216-6.238M11.676,76.94A6.275,6.275,0,0,0,5.4,70.757,6.212,6.212,0,0,0,5.458,83.18a6.281,6.281,0,0,0,6.218-6.24" transform="translate(59.338 42.095)" fill="#fff"/>
          </g>
          <g id="Group_2906" data-name="Group 2906" transform="translate(113.075 49.795)">
            <path id="Path_2491" data-name="Path 2491" d="M3.408,6.841A6.3,6.3,0,0,1-2.88.54a6.291,6.291,0,0,1,6.4-6.321A6.291,6.291,0,0,1,9.742.584,6.3,6.3,0,0,1,3.408,6.841m.074-8.336A2.1,2.1,0,0,0,1.408.444,2.1,2.1,0,0,0,3.314,2.551a2.092,2.092,0,0,0,2.14-2A2.1,2.1,0,0,0,3.482-1.495" transform="translate(2.88 5.781)" fill="#7141ff"/>
          </g>
          <g id="Group_2907" data-name="Group 2907" transform="translate(62.941 124.99)">
            <path id="Path_2492" data-name="Path 2492" d="M3.459,6.841A6.3,6.3,0,0,1-2.923.627,6.284,6.284,0,0,1,3.256-5.781,6.285,6.285,0,0,1,9.7.494a6.283,6.283,0,0,1-6.24,6.347M5.411.505a2.1,2.1,0,0,0-2.015-2A2.093,2.093,0,0,0,1.365.619,2.1,2.1,0,0,0,3.446,2.551,2.094,2.094,0,0,0,5.411.505" transform="translate(2.923 5.781)" fill="#7141ff"/>
          </g>
          <g id="Group_2908" data-name="Group 2908" transform="translate(163.207 124.991)">
            <path id="Path_2493" data-name="Path 2493" d="M0,3.413a6.311,6.311,0,1,1,12.622.09A6.311,6.311,0,0,1,0,3.413m8.336-.041A2.111,2.111,0,0,0,6.292,1.4a2.1,2.1,0,0,0-2,2.146A2.1,2.1,0,0,0,6.4,5.45,2.1,2.1,0,0,0,8.336,3.371" transform="translate(0 2.884)" fill="#7141ff"/>
          </g>
          <g id="Group_2909" data-name="Group 2909" transform="translate(87.09 77.303)">
            <path id="Path_2494" data-name="Path 2494" d="M17.491,34.983A32.272,32.272,0,1,0-14.781,2.71,32.273,32.273,0,0,0,17.491,34.983" transform="translate(14.781 29.562)" fill="#fff"/>
          </g>
          <g id="Group_2910" data-name="Group 2910" transform="translate(87.09 77.303)">
            <path id="Path_2495" data-name="Path 2495" d="M17.491,34.983A32.272,32.272,0,1,0-14.781,2.71,32.273,32.273,0,0,0,17.491,34.983Z" transform="translate(14.781 29.562)" fill="none" stroke="#7141ff" stroke-width="1"/>
          </g>
          <g id="Group_2911" data-name="Group 2911" transform="translate(98.961 109.488)">
            <path id="Path_2496" data-name="Path 2496" d="M1.144,0A2.111,2.111,0,0,0-.967,2.111V16.755a2.111,2.111,0,0,0,2.111,2.111H38.877a2.111,2.111,0,0,0,2.111-2.111V2.111A2.111,2.111,0,0,0,38.877,0Z" transform="translate(0.967)" fill="#7141ff"/>
          </g>
          <text id="API" transform="translate(111.154 105.556)" fill="#7141ff" font-size="14" font-family="Roboto" font-weight="700"><tspan x="0" y="0">API</tspan></text>
          <g id="Group" transform="translate(107.003 109.747)">
            <text id="ToS" transform="translate(0 15)" fill="#fff" font-size="14" font-family="Roboto" font-weight="700"><tspan x="0" y="0">ToS</tspan></text>
          </g>
          <g id="Group_2912" data-name="Group 2912" transform="translate(97.809 93.649)">
            <path id="Path_2497" data-name="Path 2497" d="M2.936,0H5.18c.061.332.124.662.183,1,.015.09.076.114.151.133a5.381,5.381,0,0,1,1.345.561.181.181,0,0,0,.225-.011c.227-.159.459-.314.69-.469.109-.072.116-.072.207.02q.694.691,1.384,1.384c.094.1.094.1.015.218-.153.227-.3.456-.463.679a.187.187,0,0,0-.009.234,5.133,5.133,0,0,1,.555,1.334.192.192,0,0,0,.172.164c.269.046.537.1.806.153.138.026.148.039.148.179q0,.96,0,1.915c0,.155-.013.168-.166.2-.258.05-.517.1-.779.146A.2.2,0,0,0,9.462,8a5.133,5.133,0,0,1-.555,1.334.187.187,0,0,0,.013.234c.159.227.314.459.469.69.068.1.068.111-.017.2q-.694.7-1.393,1.393c-.092.092-.1.092-.21.017-.229-.155-.461-.31-.688-.469a.181.181,0,0,0-.223-.011,5.065,5.065,0,0,1-1.334.557.207.207,0,0,0-.177.192c-.044.26-.1.52-.146.779-.028.148-.037.157-.186.159H3.1c-.151,0-.162-.009-.19-.155-.05-.264-.1-.528-.148-.793a.2.2,0,0,0-.168-.183,5.072,5.072,0,0,1-1.334-.555.177.177,0,0,0-.223.007c-.225.157-.452.31-.679.461-.129.087-.131.087-.24-.022q-.678-.678-1.354-1.354c-.114-.114-.114-.114-.02-.251.153-.227.3-.454.461-.679a.158.158,0,0,0,.009-.2c-.059-.092-.109-.19-.159-.288a5.515,5.515,0,0,1-.408-1.07c-.017-.07-.037-.131-.12-.146l-1.009-.186V5.417c.336-.063.67-.127,1.007-.186.079-.015.1-.068.118-.133A5.317,5.317,0,0,1-.785,3.727a.161.161,0,0,0-.009-.2c-.157-.227-.312-.459-.467-.69-.085-.127-.085-.129.024-.24Q-.559,1.924.117,1.245c.111-.109.114-.109.24-.024.231.155.463.31.69.467a.158.158,0,0,0,.2.009c.092-.059.19-.109.288-.159A5.515,5.515,0,0,1,2.6,1.129c.068-.017.129-.035.144-.122C2.809.67,2.873.336,2.936,0M.558,6.528a3.5,3.5,0,1,0,3.52-3.489A3.5,3.5,0,0,0,.558,6.528" transform="translate(2.481)" fill="#7141ff"/>
          </g>
        </g>
      </g>
    </g>
  </g>
</svg>
