<svg id="pdf_icon" xmlns="http://www.w3.org/2000/svg" width="78.221" height="114.349" viewBox="0 0 78.221 114.349">
  <path id="Path_1126" data-name="Path 1126" d="M80.278,53.51l-.5-.384.5-.387Z" transform="translate(-2.057 59.024)" fill="#fefefe"/>
  <path id="Rectangle_253" data-name="Rectangle 253" d="M0,0H77.964a0,0,0,0,1,0,0V39.91a2.656,2.656,0,0,1-2.656,2.656H2.656A2.656,2.656,0,0,1,0,39.91V0A0,0,0,0,1,0,0Z" transform="translate(0 71.783)" fill="#7043f4"/>
  <path id="Path_1127" data-name="Path 1127" d="M56.685,10.3h49.084l22.459,22.9V82.082H50.264V16.721A6.422,6.422,0,0,1,56.685,10.3Z" transform="translate(-50.264 -10.3)" fill="#fff"/>
  <path id="Path_1128" data-name="Path 1128" d="M71.669,10.3c.229.192,14.69,15,21.893,22.211a8.832,8.832,0,0,1,.566.682,2.728,2.728,0,0,1-.787.248c-6.2.013-11.99.018-18.19.008a4.065,4.065,0,0,1-4-4.364V12.143a9.294,9.294,0,0,1,.032-1.409C71.205,10.569,71.5,10.445,71.669,10.3Z" transform="translate(-16.164 -10.3)" fill="#eee8ff"/>
  <path id="Path_1129" data-name="Path 1129" d="M62.894,54.13c0-3.21-.005-6.421,0-9.628a6.421,6.421,0,0,1,.095-1.275,1.832,1.832,0,0,1,1.846-1.641,76.479,76.479,0,0,1,8.077.047,5.732,5.732,0,0,1,5.2,5.609c.111,1.662.039,3.337.042,5,0,2.7-.053,5.393.013,8.088a6.262,6.262,0,0,1-6.529,6.531c-2.007-.055-4.019,0-6.028-.013-1.988-.011-2.713-.727-2.718-2.71C62.886,60.806,62.894,57.467,62.894,54.13Zm4.027-8.572V62.85c1.894,0,3.721.037,5.544-.016a1.794,1.794,0,0,0,1.628-1.427,4.635,4.635,0,0,0,.187-1.388q.02-5.839,0-11.677a5.574,5.574,0,0,0-.224-1.514,1.587,1.587,0,0,0-1.47-1.251C70.718,45.521,68.851,45.558,66.92,45.558Z" transform="translate(-29.638 40.667)" fill="#f6f0f0"/>
  <path id="Path_1130" data-name="Path 1130" d="M59.891,58.126c0,1.97.011,3.721-.005,5.475a9.257,9.257,0,0,1-.116,1.527,1.925,1.925,0,0,1-1.825,1.662,2.079,2.079,0,0,1-1.833-1.375,3.707,3.707,0,0,1-.171-1.13q-.012-10.144,0-20.291c.005-1.714.74-2.447,2.42-2.46,2.436-.018,4.877-.026,7.313.005a5.211,5.211,0,0,1,5.288,4.5,37.545,37.545,0,0,1,0,7.537A5.238,5.238,0,0,1,65.8,58.092c-1.493.074-2.994.029-4.49.034C60.889,58.129,60.473,58.126,59.891,58.126Zm-.021-3.882c1.941,0,3.729.053,5.512-.018a1.754,1.754,0,0,0,1.854-1.986q.043-2.433,0-4.867c-.026-1.325-.558-1.857-1.888-1.886-1.535-.034-3.071-.016-4.609-.008a7.745,7.745,0,0,0-.869.108Z" transform="translate(-41.006 40.697)" fill="#f6f0f1"/>
  <path id="Path_1131" data-name="Path 1131" d="M73.973,56.113v1.414c0,2.312-.011,4.624.005,6.934a2.134,2.134,0,0,1-.753,1.82,1.881,1.881,0,0,1-3.06-.932,3.635,3.635,0,0,1-.145-1.009q-.012-10.148-.005-20.294a3.947,3.947,0,0,1,.039-.637,2.019,2.019,0,0,1,2.07-1.88c.126-.008.255,0,.384,0,3.421,0,6.845.005,10.266-.005a2.457,2.457,0,0,1,1.9.608,1.949,1.949,0,0,1-1.1,3.276,5.045,5.045,0,0,1-1.148.068q-3.528.008-7.058,0H74.047v6.758c.843,0,1.643,0,2.444,0,1.024.005,2.054-.021,3.079.034a1.88,1.88,0,0,1,1.788,1.688,1.919,1.919,0,0,1-1.427,2.038,5.089,5.089,0,0,1-1.269.113C77.168,56.121,75.675,56.113,73.973,56.113Z" transform="translate(-18 40.701)" fill="#f6f0f0"/>
</svg>
