<svg id="new_picto_api_Sufficient_time_notice-" xmlns="http://www.w3.org/2000/svg" width="47.743" height="47.743" viewBox="0 0 47.743 47.743">
  <circle id="Ellipse_246" data-name="Ellipse 246" cx="21.708" cy="21.708" r="21.708" transform="translate(2.163 2.163)" fill="#fff"/>
  <g id="Group_2834" data-name="Group 2834">
    <path id="Path_2469" data-name="Path 2469" d="M24.327.5A23.1,23.1,0,0,1,41.313,7.43a23.046,23.046,0,0,1,6.93,16.941,22.594,22.594,0,0,1-6.826,16.755,23.5,23.5,0,0,1-17.091,7.117A22.775,22.775,0,0,1,7.55,41.209,22.952,22.952,0,0,1,.5,24.372,23.383,23.383,0,0,1,7.535,7.408,22.857,22.857,0,0,1,24.327.5Zm.067,4.3a18.548,18.548,0,0,0-13.749,5.714A19.124,19.124,0,0,0,4.8,24.372,18.769,18.769,0,0,0,10.6,38.1a18.854,18.854,0,0,0,13.808,5.8,19.077,19.077,0,0,0,13.9-5.841,18.266,18.266,0,0,0,5.625-13.681,18.721,18.721,0,0,0-5.714-13.853A18.866,18.866,0,0,0,24.387,4.8Z" transform="translate(-0.5 -0.5)"/>
    <g id="Group_2833" data-name="Group 2833" transform="translate(9.787 12.036)">
      <path id="Path_2470" data-name="Path 2470" d="M39.777,28.219c-.448-.09-.9-.179-1.343-.254a.317.317,0,0,1-.283-.269,8.478,8.478,0,0,0-.918-2.216.3.3,0,0,1,.015-.388c.261-.373.515-.746.768-1.126.134-.194.134-.209-.03-.366-.768-.768-1.529-1.537-2.3-2.3-.157-.157-.164-.157-.343-.03-.38.254-.768.515-1.149.783a.3.3,0,0,1-.373.015,9.05,9.05,0,0,0-2.238-.932c-.119-.03-.224-.075-.254-.224-.1-.552-.2-1.1-.306-1.656h-3.1l-.97,2.35a.28.28,0,0,0,.216.38l4.416.634a.278.278,0,0,1,.09.522l-2.26,1.179A5.811,5.811,0,1,1,23.4,30.89l-.813-1.052a.281.281,0,0,0-.44,0L20.12,32.419a.367.367,0,0,1,.045.127,9.049,9.049,0,0,0,.679,1.783c.082.164.164.321.261.477a.259.259,0,0,1-.015.328c-.261.373-.515.753-.768,1.126-.157.231-.157.231.03.418.746.753,1.5,1.5,2.253,2.253.179.179.186.179.4.037.38-.254.753-.507,1.126-.768a.3.3,0,0,1,.373-.007,8.876,8.876,0,0,0,2.216.925.333.333,0,0,1,.276.306c.075.44.164.88.246,1.32.045.239.067.254.313.254h3.185c.246,0,.261-.015.306-.261.082-.433.172-.865.239-1.3a.349.349,0,0,1,.291-.321,8.251,8.251,0,0,0,2.216-.925.3.3,0,0,1,.373.015c.38.269.761.522,1.149.783.187.119.194.127.343-.03.776-.768,1.544-1.544,2.313-2.313.142-.142.142-.157.03-.328-.254-.38-.515-.768-.783-1.149a.3.3,0,0,1-.022-.388,8.876,8.876,0,0,0,.925-2.216.333.333,0,0,1,.306-.276c.433-.075.865-.164,1.3-.246.254-.052.276-.067.276-.328V28.533c0-.231-.022-.254-.246-.3Z" transform="translate(-15.27 -17.301)"/>
      <path id="Path_2471" data-name="Path 2471" d="M19.94,30.889h0C20.216,30.837,20.082,30.859,19.94,30.889Z" transform="translate(-15.225 -20.247)" fill="#fff"/>
      <path id="Path_2472" data-name="Path 2472" d="M27.585,22.726a.155.155,0,0,0-.052-.291l-3.446-.492a.151.151,0,0,1-.119-.216l1.328-3.215a.155.155,0,0,0-.224-.194l-2.954,1.835a.154.154,0,0,1-.231-.09l-1.052-3.32a.157.157,0,0,0-.3,0l-1.089,3.3a.153.153,0,0,1-.231.082l-2.939-1.865a.16.16,0,0,0-.231.194l1.291,3.23a.159.159,0,0,1-.127.216l-3.454.455a.155.155,0,0,0-.052.291l3.066,1.641a.161.161,0,0,1,.045.246L14.463,27.1a.158.158,0,0,0,.149.261l3.409-.716a.154.154,0,0,1,.186.157l-.149,3.476a.156.156,0,0,0,.276.1l2.148-2.738a.154.154,0,0,1,.246,0l2.126,2.76a.159.159,0,0,0,.283-.1l-.112-3.476a.157.157,0,0,1,.194-.157l3.4.746a.158.158,0,0,0,.149-.261l-2.32-2.6a.162.162,0,0,1,.045-.246l3.088-1.611Zm-6.229,3.827H20.065V25.277h1.291Zm0-2.186H20.065V20.905a7.455,7.455,0,0,1,1.291,0v3.469Z" transform="translate(-13.619 -16.634)"/>
    </g>
  </g>
</svg>
